{"title":"The Hobbit 2012 DVDSCR XVID AC3 Hive-CM8","uid":7978773,"size":1633262140,"categoryP":"video","categoryS":"movies","magnet":"?xt=urn:btih:82d41871e803d7e96058e34b892f284bfb764af4&amp;dn=The+Hobbit+2012+DVDSCR+XVID+AC3+Hive-CM8&amp;tr=udp%3A%2F%2Ftracker.openbittorrent.com%3A80&amp;tr=udp%3A%2F%2Fopen.demonii.com%3A1337&amp;tr=udp%3A%2F%2Ftracker.coppersurfer.tk%3A6969&amp;tr=udp%3A%2F%2Fexodus.desync.com%3A6969","seeders":5,"leechers":2,"uploader":"juggs99","files":4,"time":1357091367,"description":"The.Hobbit.2012.DVDSCR.XVID.AC3.Hive-CM8\n\n\n\nSoutce: DVDSCR - Thekillingjoke, Big Thx\n\nVideo.: 640x272 @bitrate 1000 2pass\nAudio.: English AC3 2.0 Stereo\nSample: Yes, included\n\n\nIMDb..: http://www.imdb.com/title/tt0903624/\n\n\nGeneral\nComplete name : The.Hobbit.2012.DVDSCR.XVID.AC3.Hive-CM8.avi\nFormat : AVI\nFormat/Info : Audio Video Interleave\nFile size : 1.50 GiB\nDuration : 2h 49mn\nOverall bit rate : 1 265 Kbps\nWriting application : Nandub v1.0rc2\nWriting library : Nandub build 1853/release\n\nVideo\nID : 0\nFormat : MPEG-4 Visual\nFormat profile : Advanced Simple@L5\nFormat settings, BVOP : 2\nFormat settings, QPel : Yes\nFormat settings, GMC : No warppoints\nFormat settings, Matrix : Default (H.263)\nMuxing mode : Packed bitstream\nCodec ID : XVID\nCodec ID/Hint : XviD\nDuration : 2h 49mn\nBit rate : 997 Kbps\nWidth : 640 pixels\nHeight : 272 pixels\nDisplay aspect ratio : 2.35:1\nFrame rate : 29.534 fps\nOriginal frame rate : 29.547 fps\nColor space : YUV\nChroma subsampling : 4:2:0\nBit depth : 8 bits\nScan type : Progressive\nCompression mode : Lossy\nBits/(Pixel*Frame) : 0.194\nStream size : 1.18 GiB (79%)\nWriting library : XviD 1.2.1 (UTC 2008-12-04)\n\nAudio\nID : 1\nFormat : AC-3\nFormat/Info : Audio Coding 3\nMode extension : CM (complete main)\nFormat settings, Endianness : Big\nCodec ID : 2000\nDuration : 2h 49mn\nBit rate mode : Constant\nBit rate : 256 Kbps\nChannel(s) : 2 channels\nChannel positions : Front: L R\nSampling rate : 48.0 KHz\nBit depth : 16 bits\nCompression mode : Lossy\nStream size : 310 MiB (20%)\nAlignment : Split accross interleaves\nInterleave, duration : 34 ms (1.00 video frame)\nInterleave, preload duration : 500 ms\n","torrent":{"xt":"urn:btih:82d41871e803d7e96058e34b892f284bfb764af4","amp;dn":"The+Hobbit+2012+DVDSCR+XVID+AC3+Hive-CM8","amp;tr":["udp%3A%2F%2Ftracker.openbittorrent.com%3A80","udp%3A%2F%2Fopen.demonii.com%3A1337","udp%3A%2F%2Ftracker.coppersurfer.tk%3A6969","udp%3A%2F%2Fexodus.desync.com%3A6969"],"infoHash":"82d41871e803d7e96058e34b892f284bfb764af4","infoHashBuffer":{"type":"Buffer","data":[130,212,24,113,232,3,215,233,96,88,227,75,137,47,40,75,251,118,74,244]},"announce":[],"urlList":[]}}